<svg width="131" height="190" viewBox="0 0 131 190" fill="none" xmlns="http://www.w3.org/2000/svg">
<path d="M65.639 0C28.894 0 0 17.274 0 38.944V150.75C0 172.421 29.522 189.694 65.325 189.694C101.442 189.694 130.964 172.107 130.964 150.75V38.944C131.278 16.96 102.384 0 65.639 0ZM65.639 14.133C95.789 14.133 117.145 27.324 117.145 38.944C117.145 50.878 96.103 63.755 65.639 63.755C35.175 63.755 14.133 50.564 14.133 38.944C14.133 27.01 35.489 14.133 65.639 14.133ZM65.639 175.875C36.117 175.875 14.447 162.685 14.447 151.064V138.816C26.381 147.61 44.597 152.949 65.639 152.949C86.681 152.949 105.211 147.296 117.145 138.816V151.064C117.145 162.685 95.161 175.875 65.639 175.875ZM65.639 138.816C35.489 138.816 14.447 126.253 14.447 114.947V100.5C26.695 109.294 45.853 114.633 65.639 114.633C86.367 114.633 104.897 109.294 117.145 100.5V114.947C117.145 126.253 95.789 138.816 65.639 138.816ZM108.98 88.88C99.244 96.103 83.227 100.5 65.639 100.5C48.366 100.5 32.034 96.103 22.298 88.88C18.53 86.368 14.447 81.971 14.447 76.632V63.441C26.381 72.235 44.911 77.888 65.953 77.888C86.995 77.888 105.525 72.235 117.459 63.441V76.632C117.145 81.657 112.748 86.053 108.98 88.88Z" fill="#01ADD8"/>
</svg>
