<svg width="82" height="82" viewBox="0 0 82 82" fill="none" xmlns="http://www.w3.org/2000/svg">
<path d="M20.1989 50.4652C20.1976 51.9556 19.7545 53.4122 18.9256 54.6508C18.0966 55.8894 16.9191 56.8544 15.5418 57.4239C14.1645 57.9934 12.6492 58.1417 11.1876 57.8502C9.72604 57.5586 8.38368 56.8403 7.33026 55.786C6.27684 54.7317 5.55965 53.3887 5.26936 51.9269C4.97906 50.465 5.12869 48.9499 5.69933 47.5731C6.26997 46.1963 7.23601 45.0195 8.47531 44.1916C9.71462 43.3638 11.1716 42.9219 12.662 42.9219H20.1989V50.4652Z" fill="black"/>
<path d="M23.9978 50.4652C23.9978 48.4663 24.7919 46.5493 26.2053 45.1358C27.6188 43.7223 29.5358 42.9283 31.5348 42.9283C33.5337 42.9283 35.4507 43.7223 36.8642 45.1358C38.2776 46.5493 39.0717 48.4663 39.0717 50.4652V69.338C39.0717 71.337 38.2776 73.254 36.8642 74.6675C35.4507 76.0809 33.5337 76.875 31.5348 76.875C29.5358 76.875 27.6188 76.0809 26.2053 74.6675C24.7919 73.254 23.9978 71.337 23.9978 69.338V50.4652Z" fill="black"/>
<path d="M31.5348 20.1989C30.0444 20.1976 28.5879 19.7545 27.3493 18.9256C26.1107 18.0966 25.1456 16.9191 24.5762 15.5418C24.0067 14.1645 23.8583 12.6492 24.1499 11.1876C24.4414 9.72604 25.1597 8.38368 26.2141 7.33026C27.2684 6.27684 28.6113 5.55965 30.0732 5.26935C31.535 4.97906 33.0502 5.12869 34.427 5.69933C35.8038 6.26997 36.9805 7.23601 37.8084 8.47531C38.6363 9.71462 39.0782 11.1716 39.0782 12.662V20.1989H31.5348Z" fill="black"/>
<path d="M31.5348 23.9978C33.5337 23.9978 35.4507 24.7919 36.8642 26.2053C38.2777 27.6188 39.0717 29.5358 39.0717 31.5348C39.0717 33.5337 38.2777 35.4507 36.8642 36.8642C35.4507 38.2777 33.5337 39.0717 31.5348 39.0717H12.662C10.663 39.0717 8.74598 38.2777 7.33252 36.8642C5.91907 35.4507 5.125 33.5337 5.125 31.5348C5.125 29.5358 5.91907 27.6188 7.33252 26.2053C8.74598 24.7919 10.663 23.9978 12.662 23.9978H31.5348Z" fill="black"/>
<path d="M61.8011 31.5348C61.8024 30.0444 62.2455 28.5878 63.0745 27.3492C63.9034 26.1106 65.081 25.1456 66.4583 24.5761C67.8356 24.0066 69.3508 23.8583 70.8124 24.1498C72.274 24.4414 73.6164 25.1597 74.6698 26.214C75.7232 27.2683 76.4404 28.6113 76.7307 30.0731C77.021 31.535 76.8714 33.0501 76.3007 34.4269C75.7301 35.8037 74.764 36.9805 73.5247 37.8084C72.2854 38.6363 70.8285 39.0781 69.3381 39.0781H61.8011V31.5348Z" fill="black"/>
<path d="M58.0021 31.5348C58.0021 33.5337 57.2081 35.4507 55.7946 36.8642C54.3812 38.2777 52.4641 39.0717 50.4652 39.0717C48.4663 39.0717 46.5492 38.2777 45.1357 36.8642C43.7223 35.4507 42.9282 33.5337 42.9282 31.5348V12.662C42.9282 10.663 43.7223 8.74598 45.1357 7.33252C46.5492 5.91907 48.4663 5.125 50.4652 5.125C52.4641 5.125 54.3812 5.91907 55.7946 7.33252C57.2081 8.74598 58.0021 10.663 58.0021 12.662V31.5348Z" fill="black"/>
<path d="M50.4652 61.8011C51.9556 61.8024 53.4122 62.2455 54.6508 63.0744C55.8894 63.9034 56.8544 65.0809 57.4239 66.4582C57.9934 67.8355 58.1417 69.3508 57.8502 70.8124C57.5586 72.274 56.8403 73.6163 55.786 74.6697C54.7317 75.7232 53.3887 76.4403 51.9269 76.7306C50.465 77.0209 48.9499 76.8713 47.5731 76.3007C46.1963 75.73 45.0195 74.764 44.1916 73.5247C43.3638 72.2854 42.9219 70.8284 42.9219 69.338V61.8011H50.4652Z" fill="black"/>
<path d="M50.4652 58.0022C48.4663 58.0022 46.5492 57.2081 45.1357 55.7947C43.7223 54.3812 42.9282 52.4642 42.9282 50.4652C42.9282 48.4663 43.7223 46.5493 45.1357 45.1358C46.5492 43.7223 48.4663 42.9283 50.4652 42.9283H69.338C71.3369 42.9283 73.254 43.7223 74.6674 45.1358C76.0809 46.5493 76.8749 48.4663 76.8749 50.4652C76.8749 52.4642 76.0809 54.3812 74.6674 55.7947C73.254 57.2081 71.3369 58.0022 69.338 58.0022H50.4652Z" fill="black"/>
</svg>
